<svg width="122" height="46" viewBox="0 0 122 46" fill="none" xmlns="http://www.w3.org/2000/svg">
<path d="M0.48 46V0.239998H38.816C43.552 0.239998 47.2213 1.43466 49.824 3.824C52.4693 6.21333 53.792 9.84 53.792 14.704C53.792 18.8427 52.832 22.0853 50.912 24.432C48.992 26.7787 46.2613 28.2507 42.72 28.848L53.28 46H41.632L31.84 29.168H10.72V46H0.48ZM37.6 8.56H10.72V20.784L37.6 20.848C39.4773 20.848 40.9067 20.3787 41.888 19.44C42.912 18.5013 43.424 16.9227 43.424 14.704C43.424 12.4427 42.912 10.864 41.888 9.968C40.9067 9.02933 39.4773 8.56 37.6 8.56ZM61.48 46V0.239998H70.056L91.24 15.088H91.56L112.744 0.239998H121.32V46H111.08V13.04L96.552 22.768V46H86.312V22.768L71.72 13.04V46H61.48Z" fill="white"/>
</svg>
